<?xml version="1.0" encoding="UTF-8"?>
<svg id="Layer_1" xmlns="http://www.w3.org/2000/svg" version="1.1" xmlns:xlink="http://www.w3.org/1999/xlink" viewBox="0 0 512 512">
  <!-- Generator: Adobe Illustrator 29.6.0, SVG Export Plug-In . SVG Version: 2.1.1 Build 207)  -->
  <defs>
    <style>
      .st0 {
        fill: #fff;
      }

      .st1 {
        fill: #f4f4f4;
        fill-opacity: .73;
      }

      .st2 {
        fill: url(#linear-gradient);
        stroke: #fff;
        stroke-width: 2px;
      }
    </style>
    <linearGradient id="linear-gradient" x1="28.21" y1="465.83" x2="486.05" y2="39.84" gradientTransform="translate(0 509.89) scale(1 -1)" gradientUnits="userSpaceOnUse">
      <stop offset="0" stop-color="#8ee3e3"/>
      <stop offset="1" stop-color="#59c0c1"/>
    </linearGradient>
  </defs>
  <path class="st2" d="M118.41,1h275.19c64.84,0,117.41,52.56,117.41,117.41v275.19c0,64.84-52.57,117.41-117.41,117.41H118.41c-64.84,0-117.41-52.57-117.41-117.41V118.41C1,53.56,53.56,1,118.41,1Z"/>
  <path class="st1" d="M290.29,292.64c12.2,9.45-5.96,40.81-28.02,70.73.13-.7.21-1.48.21-2.3,0-4.38-3.32-9.32-9.26-15.25,0,0-10.76-11.15-34.87-23.58-5.37-2.77-12.01-6.11-18.86-9.14,0,0-12.73-5.88-31.51-11.31v-3.98c39.99-5.22,70.84-10.93,93.98-18.14.04,0,.08-.02.11-.04,5.46,1.97,16.05,6.09,26.58,11.97,0,0,.59.34,1.23.82l.38.27.02-.04Z"/>
  <path class="st0" d="M168,301.77c39.97-5.22,70.84-10.93,93.98-18.14,40.41-12.6,59.49-24.83,59.49-24.83v-70.1c-40.98,38.42-153.48,55.17-153.48,55.17v57.92-.02Z"/>
  <path class="st0" d="M289,291.73l-.21-.11c-.17-.1-.3-.15-.42-.19-.17-.09-.3-.13-.3-.13.42.17.78.4,1.14.61.25.15.49.3.72.47.11.09.23.17.34.27,7.89,6.68-5.82,32.61-27.26,64.45-5.82,9.09-9.52,14.48-9.52,14.48-24.19,34.51-48.95,54.14-48.95,54.14h90.95c16.32-31.61,25.97-57.16,25.97-76.17,0-38.82-27.79-55.51-32.5-57.81h.04Z"/>
  <path class="st0" d="M259.18,193.27c35.14,4.42,64.67-25.12,60.25-60.25-3.02-23.94-22.35-43.27-46.29-46.29-35.14-4.42-64.67,25.12-60.25,60.25,3.02,23.94,22.35,43.27,46.29,46.29ZM248.61,137.06c1.14-7.47,7.27-13.6,14.74-14.74,12.01-1.84,22.2,8.37,20.36,20.38-1.14,7.48-7.27,13.6-14.74,14.74-12.01,1.84-22.2-8.35-20.36-20.38Z"/>
</svg>